<svg id="Layer_2" xmlns="http://www.w3.org/2000/svg" viewBox="-437 328.7 493.1 144.3" style="enable-background:new -437 328.7 493.1 144.3">
  <style>
    .st0{fill:#1f7470}.st1{fill:#5fba68}.st2{fill:#91e182}
  </style>
  <path class="st0" d="M-411.7 389.9c-1.3-2.3-2.6-4.6-3.6-7.1-2.9-6.7-4.6-14-4.8-21.7-7.9 11.2-12.6 24.9-12.6 39.6 0 10.6 2.4 20.6 6.7 29.6.8 1.7 1.8 3.4 2.7 5.1 0-.8-.1-1.7-.1-2.6 0-12.6 3.9-24.4 10.5-34.1.2-3 .6-5.9 1.2-8.8z"/>
  <path class="st1" d="M-368.4 466.6c-11.8-7.1-21.5-17.3-28.1-29.4-10-8.9-16.4-22-16.4-36.5v-1.9c-6.6 9.7-10.5 21.4-10.5 34.1 0 .9 0 1.7.1 2.6 9.1 15.5 24.1 27.1 41.9 31.7 5.5 1.4 11.3 2.2 17.3 2.2h.6c-1.7-1-3.3-1.9-4.9-2.8zM-373.8 332.7c-7.3 1-14.3 3.3-20.7 6.4-1.1.5-2.1 1.1-3.1 1.7-8.9 5-16.6 12-22.5 20.3.3 7.7 2 15 4.8 21.7 1 2.4 2.3 4.8 3.6 7.1 1.3-5.9 3.7-11.4 6.9-16.2 2-3 4.4-5.8 7-8.3 1.8-3.5 3.8-6.9 6.1-10.1.4-.6.8-1.2 1.2-1.7 3.4-4.6 7.4-8.7 11.7-12.5 4-3.4 8.3-6.4 12.9-9-2.7.1-5.4.3-7.9.6z"/>
  <path class="st2" d="M-329.7 435.5c-8.8 8.7-20.9 14.1-34.3 14.1-12.5 0-23.9-4.7-32.5-12.4 6.6 12.1 16.3 22.3 28.1 29.4 1.6 1 3.2 1.9 4.9 2.7 12.9-.1 24.9-3.8 35.2-10V434c-.5.5-.9 1-1.4 1.5zM-326.4 409.9c-.4-2.9-1-5.8-1.8-8.5-.8-2.5-1.7-4.9-2.8-7.2-18.2-.3-34.6-8-46.3-20.3-2.1-2.2-4-4.5-5.7-6.9-.2-.3-.4-.6-.6-.8v.2c.2 3.1.7 6.1 1.4 9 5.5 21.9 25.1 38.2 48.6 38.6h.9c1.5 0 3.1-.1 4.6-.2.7-.1 1.4-.1 2.2-.2-.3-1.3-.4-2.5-.5-3.7zM-346.7 334.3c-5.5-1.5-11.4-2.3-17.3-2.3h-1.9c-4.6 2.6-8.9 5.6-12.9 9-4.3 3.7-8.3 7.9-11.7 12.5-.4.6-.8 1.2-1.2 1.7-2.3 3.2-4.3 6.6-6.1 10.1 2.5-2.4 5.3-4.6 8.3-6.4.4-.2.8-.4 1.1-.7 1.6-.9 3.3-1.8 5.1-2.5 5.9-2.5 12.4-3.9 19.2-3.9 2.8 0 5.5.2 8.1.7 10.8 1.8 20.5 7.2 27.6 14.9v-25.3c-5.5-3.5-11.7-6.1-18.3-7.8z"/>
  <path class="st1" d="M-331.6 393.3c-1.3-2.6-2.8-5-4.5-7.3-.9 0-1.9.1-2.9.1-1.9 0-3.8-.1-5.6-.3a60.41 60.41 0 0 1-31.2-12.3c-2.6-2-5-4.2-7.3-6.6 1.8 2.4 3.7 4.8 5.7 6.9 11.7 12.3 28 20 46.3 20.3-.1-.2-.3-.5-.5-.8z"/>
  <path class="st0" d="M-349.3 373.6c-1.7-1.1-3.4-2.1-5.2-3-6.8-3.3-14.4-5.2-22.4-5.2-2.3 0-4.5.2-6.7.5v.3c.2.3.4.6.6.8 2.2 2.4 4.7 4.6 7.3 6.6 8.7 6.7 19.5 11.1 31.2 12.2 1.9.2 3.7.3 5.6.3 1 0 1.9 0 2.9-.1-3.7-4.9-8.2-9.1-13.3-12.4z"/>
  <path class="st2" d="M-286.7 363c-1.7 0-3.3.1-4.9.3-2.6.4-5.1 1-7.5 1.8-1.7.6-3.3 1.4-4.9 2.2-5.2 2.9-9.7 7-12.9 12v-28.5c-1.9-1.8-3.8-3.4-5.8-5v109.6c2-1.5 4-3.2 5.8-5v-55.5c.5 0 .9-.1 1.4-.2h.2c2-.3 4-.7 5.9-1.3 4.7-1.5 8.9-3.9 12.5-7 1.3-1.1 2.5-2.3 3.6-3.5 4.8-5.4 8-12.2 8.8-19.8-.8-.1-1.5-.1-2.2-.1z"/>
  <g>
    <path class="st2" d="M-214.1 351.1h16v79.2h-18v-41.6l-15.3 28.4h-13.2l-15.2-27.8-.1 40.9h-18v-79.1h16.3l23.9 45.1 23.6-45.1zM-147.1 375.3h19.5l-33.7 75.3h-20.2l11.1-24-22.6-51.4h20.9l12.1 31.2 12.9-31.1zM-122.8 351.1h38.3c8.7 0 15.6 2.2 20.5 6.7s7.3 10.7 7.3 18.5-2.4 14-7.3 18.5-11.7 6.7-20.4 6.7H-102v28.7h-20.6V351h-.2zm35.5 35.1c3.8 0 6.6-.8 8.4-2.4 1.8-1.5 2.8-4.1 2.8-7.3s-1-5.8-2.8-7.3c-1.8-1.5-4.6-2.4-8.4-2.4h-14.9v19.4h14.9zM.7 406.6h-34.1c.6 3.7 2 6.2 3.9 7.7s4.9 2.4 8.7 2.4c2.7 0 5.5-.4 8.1-1.4 2.8-.8 5.2-2.1 7.4-3.7l5.1 13.2c-2.8 2-6 3.7-10 4.8-3.9 1.1-7.7 1.7-11.7 1.7-6.3 0-11.9-1.1-16.6-3.5s-8.3-5.6-10.7-10c-2.5-4.4-3.8-9.4-3.8-15.3 0-5.5 1.1-10.5 3.5-14.9s5.6-7.7 9.8-10.3c4.2-2.4 9-3.7 14.3-3.7 8 0 14.2 2.5 18.8 7.6 4.6 5.1 7 11.9 7 20.8v4.6zm-34.4-9.4H-16c-.4-6.6-3.2-9.8-8.6-9.8-5.3-.2-8.4 3.2-9.1 9.8zM52.4 390l-11 1.1c-4.4.4-7.4 1.5-9.1 3.5-1.7 1.8-2.5 4.5-2.5 8v27.8h-20v-55.3h19v9.6c1.3-3.4 3.4-5.9 6.3-7.7s6.5-2.8 10.7-2.9l5.5-.4 1.1 16.3z"/>
  </g>
</svg>
