<svg height="512" viewBox="0 0 60 60" width="512" xmlns="http://www.w3.org/2000/svg"><path id="Shape" d="m59.021 41.106c-2.0355213-.1944051-4.0875634-.1271911-6.106.2-2.2058529-2.3966423-4.9652915-4.2163542-8.037-5.3 13.717-4.407 13.374-14.094-.8-18.251 9.242-6.955 1.387-17.755-15.078-17.755-10.654 0-19 4.832-19 11 0 3.006 1.992 5.688 5.257 7.655-10.806 4.225-10.576 11.845-1.4 16.095-8.511 2.358-13.857 6.8-13.857 11.75 0 7.57 12.079 13.5 27.5 13.5 2.5062713.0030665 5.0098055-.1656623 7.493-.505 2.3042264.4707506 4.6651924.5998001 7.007.383.7260998.0712939 1.4554235.1046726 2.185.1 3.008 0 8.348-.541 11.812-3.99 4.941-4.922 3.941-13.644 3.9-14.013-.0571818-.4567639-.418792-.8154845-.876-.869zm-47.021-30.106c0-4.878 7.785-9 17-9s17 4.122 17 9-7.785 9-17 9-17-4.122-17-9zm-2.94 16c0-2.688 3.318-5.389 8.678-7.1 7.077 2.977 17.225 2.827 24.01-.7 6.809 1.62 11.192 4.658 11.192 7.8 0 3.217-4.577 6.323-11.66 7.915-7.3 1.645-16.632 1.476-23.788-.885-5.28-1.73-8.432-4.363-8.432-7.03zm-7.06 19.5c0-4.428 6.075-8.625 15.139-10.487 7.9003489 2.3072668 16.2496351 2.6189048 24.3.907 3.4178849.8832391 6.5807176 2.5564509 9.234 4.885-4.1349786.9688197-7.4402289 4.0678967-8.673 8.132-.590951-1.8566101-1.6037292-3.551191-2.959-4.951-4.938-4.92-13.691-3.925-14.062-3.88-.4566271.0555162-.8164838.4153729-.872.872-.045.369-1.045 9.091 3.9 14.013.7700617.7569974 1.6429818 1.4016723 2.593 1.915-14.417.812-28.6-4.391-28.6-11.406zm38.954 9.979-3.338-3.324.5-2.47c.071292-.3507459-.0503088-.712849-.3188502-.9494727-.2685414-.2366238-.6430699-.3116823-.9820536-.1968114s-.5907264.4021529-.6600962.7532841l-.235 1.17-1.308-1.3.5-2.47c.0817387-.3546767-.0356856-.7257563-.3065811-.9688456-.2708956-.2430893-.6524775-.319795-.996266-.2002698s-.595486.4164038-.6571529.7751154l-.236 1.171-2.891-2.881c-.389913-.3935029-1.0249971-.396413-1.4185-.0065-.3935028.3899131-.396413 1.0249971-.0065 1.4185l2.883 2.872-1.169.232c-.5417913.1079717-.8934716.6347087-.7855 1.1765.1079717.5417913.6347087.8934716 1.1765.7855l2.485-.495 1.3 1.3-1.169.233c-.531749.1171217-.8720642.638147-.7655943 1.1721307.10647.5339837.6205892.884645 1.1565943.7888693l2.488-.495 3.417 3.4c-2.717-.026-7.327-.533-10.2-3.4-3.445-3.432-3.493-9.383-3.384-11.542 2.169-.109 8.149-.064 11.6 3.371 2.481 2.471 3.2 6.243 3.365 8.97-.026.394-.04.768-.044 1.11zm13.631-1.905c-2.867 2.856-7.479 3.366-10.2 3.4l3.413-3.4c2.617.521 2.536.513 2.681.513.5137531.0005163.9443106-.3883485.9959422-.8995008.0516315-.5111523-.2924636-.9782648-.7959422-1.0804992l-1.169-.233 1.3-1.3c.884536.2159346 1.779321.3874823 2.681.514.5157092.0031386.949225-.3864226 1.0010282-.899533s-.2950985-.9814619-.8010282-1.081467l-1.169-.232 2.878-2.875c.2531227-.2524081.3523595-.6206822.260329-.9660969-.0920305-.3454148-.3613468-.6154935-.7065-.7085-.3451532-.0930066-.7137063.0051888-.966829.2575969l-2.891 2.881-.24-1.164c-.0616669-.3587116-.3133644-.6555902-.6571529-.7751154s-.7253704-.0428195-.996266.2002698c-.2708955.2430893-.3883198.6141689-.3065811.9688456l.5 2.47-1.308 1.3-.235-1.17c-.0693698-.3511312-.3211125-.6384132-.6600962-.7532841s-.7135122-.0398124-.9820536.1968114c-.2685414.2366237-.3901422.5987268-.3188502.9494727l.5 2.47-3.338 3.324c0-.351-.019-.734-.041-1.135.168-2.722.887-6.472 3.366-8.941 3.448-3.436 9.433-3.482 11.6-3.371.103 2.155.062 8.098-3.394 11.54z"/></svg>