<svg height="512" viewBox="0 0 60 60" width="512" xmlns="http://www.w3.org/2000/svg"><g id="047---Yoga-Practice"><path id="Shape" d="m10 53c0-1.6568542-1.34314575-3-3-3s-3 1.3431458-3 3 1.34314575 3 3 3 3-1.3431458 3-3zm-4 0c0-.5522847.44771525-1 1-1s1 .4477153 1 1-.44771525 1-1 1-1-.4477153-1-1z"/><path id="Shape" d="m57 6h-43.08c-.5496345-3.60902175-3.7805374-6.18968051-7.42178853-5.92809638-3.64125114.26158413-6.47009623 3.27756962-6.49821147 6.92809638v46c.00495836 3.8639376 3.13606244 6.9950416 7 7h50c1.6568542 0 3-1.3431458 3-3v-48c0-1.65685425-1.3431458-3-3-3zm-55 1c0-2.76142375 2.23857625-5 5-5s5 2.23857625 5 5v41.111c-1.3133265-1.3498744-3.11665526-2.111375-5-2.111375s-3.68667347.7615006-5 2.111375zm0 46c0-2.7614237 2.23857625-5 5-5s5 2.2385763 5 5-2.23857625 5-5 5c-2.76005315-.0033061-4.99669388-2.2399468-5-5zm56 4c0 .5522847-.4477153 1-1 1h-45.111c1.3500248-1.3131925 2.1114407-3.116641 2.111-5v-45h43c.5522847 0 1 .44771525 1 1z"/><path id="Shape" d="m5 8c.55228475 0 1-.44771525 1-1v-1c0-.55228475-.44771525-1-1-1s-1 .44771525-1 1v1c0 .55228475.44771525 1 1 1z"/><path id="Shape" d="m5 43c.55228475 0 1-.4477153 1-1v-31c0-.5522847-.44771525-1-1-1s-1 .4477153-1 1v31c0 .5522847.44771525 1 1 1z"/><path id="Shape" d="m52.028 22.111c-.368-.046-9.064-1.06-13.98 3.867-1.4537202 1.5162059-2.5160359 3.3638459-3.095 5.383-.5306399-1.4737057-1.3665477-2.8187232-2.453-3.947-4.4-4.442-12.2-3.563-12.527-3.522-.4566908.0549924-.8169603.4144365-.873.871-.041.332-.945 8.166 3.451 12.6 3.1 3.134 7.9 3.618 10.571 3.618.6455393.0038944 1.2908162-.027151 1.933-.093.7475961.0801612 1.4991344.1178883 2.251.113 3 0 8.267-.545 11.7-3.983 4.912-4.918 3.936-13.663 3.894-14.033-.0546621-.4574056-.4147208-.8182901-.872-.874zm-31 3.708c1.984-.083 7.087.008 10.055 3 2.41 2.433 2.911 6.3 2.963 8.727l-2.777-2.8.432-2.151c.0714531-.3502989-.0494037-.7121082-.3170449-.9491379s-.6414057-.3132692-.9805-.2-.592002.398839-.6634551.7491379l-.167.834-.959-.969.432-2.151c.0703813-.3502989-.0514659-.7115364-.319643-.9476379s-.6419416-.3111975-.9805-.197c-.3385584.1141974-.5904757.400339-.660857.7506379l-.167.833-2.398-2.414c-.2500196-.2607976-.62127-.366459-.9711474-.2763979-.3498773.0900612-.6239719.3618394-.7169989.7109399-.0930271.3491004.0094799.7212342.2681463.973458l2.408 2.431-.836.167c-.5047571.0998234-.8513798.5663805-.8012313 1.0784641s.480698.9025319.9952313.9025359c.7842485-.1033997 1.5618751-.2519801 2.329-.445l.968.978-.837.167c-.5049462.0998595-.8516084.5667122-.801185 1.0789622s.4814595.9025498.996185.9020378c.7840682-.1045151 1.5616315-.2530835 2.329-.445l2.788 2.815c-2.41-.061-6.255-.579-8.663-3.013.189 0-3.311-2.469-2.95-10.14zm26.56 9.791c-2.851 2.857-7.427 3.357-10.127 3.382l3.4-3.406c.877629.2179946 1.7657759.3912182 2.661.519.5137531.0005163.9443106-.3883485.9959422-.8995008.0516315-.5111523-.2924636-.9782648-.7959422-1.0804992l-1.165-.236 1.3-1.3c.8773215.2178622 1.7651287.3910848 2.66.519.5137531.0005163.9443106-.3883485.9959422-.8995008.0516315-.5111523-.2924636-.9782648-.7959422-1.0804992l-1.164-.236 2.876-2.882c.2518722-.2540158.349096-.6231084.2550479-.9682441-.094048-.3451356-.3650797-.6138801-.711-.705-.3459203-.0911198-.7141757.0092283-.9660479.2632441l-2.863 2.868-.229-1.168c-.0691309-.3506562-.3200833-.637795-.6583259-.7532539-.3382426-.115459-.7123883-.0416972-.9815.1935s-.392305.5960977-.3231741.9467539l.489 2.483-1.289 1.292-.229-1.162c-.1068671-.5420675-.6329325-.8948671-1.175-.788s-.8948671.6329325-.788 1.175l.489 2.483-3.39 3.4c.035-2.718.554-7.319 3.405-10.176 3.426-3.432 9.354-3.463 11.507-3.357.104 2.163.048 8.135-3.383 11.573z"/></g></svg>